<?xml version="1.0" encoding="UTF-8" standalone="no"?>
<!-- Created with Inkscape (http://www.inkscape.org/) -->

<svg
   id="svg2"
   sodipodi:docname="source.svg"
   viewBox="0 0 276 251.79747"
   sodipodi:version="0.32"
   version="1.0"
   inkscape:output_extension="org.inkscape.output.svg.inkscape"
   inkscape:version="1.4 (e7c3feb100, 2024-10-09)"
   width="100%"
   height="100%"
   inkscape:export-filename="/root/Desktop/foxinthehenhouse.png"
   inkscape:export-xdpi="150"
   inkscape:export-ydpi="150"
   xmlns:inkscape="http://www.inkscape.org/namespaces/inkscape"
   xmlns:sodipodi="http://sodipodi.sourceforge.net/DTD/sodipodi-0.dtd"
   xmlns="http://www.w3.org/2000/svg"
   xmlns:svg="http://www.w3.org/2000/svg"
   xmlns:rdf="http://www.w3.org/1999/02/22-rdf-syntax-ns#"
   xmlns:cc="http://creativecommons.org/ns#"
   xmlns:dc="http://purl.org/dc/elements/1.1/">
  <defs
     id="defs3085" />
  <sodipodi:namedview
     id="base"
     bordercolor="#666666"
     inkscape:pageshadow="2"
     guidetolerance="10.0"
     pagecolor="#ffffff"
     gridtolerance="10.0"
     inkscape:window-maximized="0"
     inkscape:zoom="1.081471"
     objecttolerance="10.0"
     borderopacity="1.0"
     inkscape:current-layer="svg2"
     inkscape:cx="124.36764"
     inkscape:cy="73.048653"
     inkscape:window-y="601"
     inkscape:window-x="2168"
     inkscape:window-height="1211"
     showgrid="false"
     inkscape:pageopacity="0.0"
     inkscape:window-width="1240"
     fit-margin-top="0"
     fit-margin-left="0"
     fit-margin-right="0"
     fit-margin-bottom="0"
     inkscape:showpageshadow="2"
     inkscape:pagecheckerboard="0"
     inkscape:deskcolor="#d1d1d1" />
  <metadata
     id="metadata33">
    <rdf:RDF>
      <cc:Work>
        <dc:format>image/svg+xml</dc:format>
        <dc:type
           rdf:resource="http://purl.org/dc/dcmitype/StillImage" />
        <cc:license
           rdf:resource="http://creativecommons.org/licenses/publicdomain/" />
        <dc:publisher>
          <cc:Agent
             rdf:about="http://openclipart.org/">
            <dc:title>Openclipart</dc:title>
          </cc:Agent>
        </dc:publisher>
        <dc:title />
      </cc:Work>
      <cc:License
         rdf:about="http://creativecommons.org/licenses/publicdomain/">
        <cc:permits
           rdf:resource="http://creativecommons.org/ns#Reproduction" />
        <cc:permits
           rdf:resource="http://creativecommons.org/ns#Distribution" />
        <cc:permits
           rdf:resource="http://creativecommons.org/ns#DerivativeWorks" />
      </cc:License>
    </rdf:RDF>
  </metadata>
  <g
     id="g3074"
     inkscape:export-filename="source.png"
     inkscape:export-xdpi="150"
     inkscape:export-ydpi="150">
    <g
       inkscape:export-ydpi="150"
       inkscape:export-xdpi="150"
       inkscape:export-filename="/root/Desktop/Fox.png"
       transform="translate(0.4375,-0.01053706)"
       id="g3979">
      <path
         inkscape:connector-curvature="0"
         style="fill:#2b1100;fill-rule:evenodd;stroke:#2b1100;stroke-width:0.96004224px"
         sodipodi:nodetypes="cccccccccccccccccccccccccccccccccccc"
         d="m 275.03273,160.58691 c -3.43005,-1.96666 -6.37729,-3.91647 -14.28556,-5.92961 l -32.90584,-38.43193 6.51565,-4.22008 C 219.65894,88.978293 212.21512,66.356903 170.94265,50.236627 149.78964,18.38673 99.407361,-35.328611 105.09937,35.051457 75.590951,14.564774 42.435198,5.5836694 7.0304914,12.23772 5.7163189,21.944654 28.988849,47.443683 36.440863,68.55466 24.348311,71.980651 10.558129,75.503973 0.48181194,87.505829 11.952007,89.167376 22.133237,94.426277 31.909793,100.81696 13.179515,113.35954 10.767584,122.76681 5.3437688,132.75201 c 17.4671292,0.99856 39.2740292,1.12466 39.8009462,5.52851 -24.59433,34.69069 -22.094418,42.3019 -27.428742,57.74383 15.431869,-9.38376 31.599856,-19.56338 37.71933,-18.88276 -3.028055,7.65921 -4.753092,17.61151 -3.419349,32.94736 11.668763,-14.06527 24.624981,-28.73903 48.022516,-32.37792 l -14.225635,9.50065 c 6.195968,13.68657 14.420375,20.02378 30.692415,17.96361 l -4.17258,12.13876 c 21.06845,-22.19649 38.53594,-20.02071 49.00477,-15.05105 13.15354,8.75714 21.66876,25.92337 28.43178,39.73256 15.82402,18.83137 26.79233,4.7531 36.89944,-3.85771 l -0.41151,-5.02564 c 7.88763,-6.74 7.50645,-18.66171 7.16266,-23.57582 -3.22425,3.99515 -6.62702,13.33058 -9.6515,11.35201 -0.0866,-1.06909 0.72853,-5.9582 1.51803,-10.73904 -2.00393,2.16178 -3.59492,4.2281 -5.96034,4.94429 -8.09898,-10.28048 -14.88626,-20.23698 -34.81126,-33.43544 -0.49897,-5.98306 0.65854,-11.9454 11.60482,-17.78148 8.1433,-3.51744 24.55848,10.09834 38.76669,19.14243 -0.49666,6.20943 -1.48281,12.41239 -3.51936,18.60258 5.27008,-2.46054 9.76856,-9.50905 14.42931,-15.59395 l 5.84052,-1.3599 -5.57279,10.68728 c 1.62457,0.25258 8.33704,-1.96951 17.37364,-16.99103 4.15438,-4.61718 10.43443,0.49862 11.60481,-17.78149 z"
         id="path2366" />
      <path
         id="path3142"
         style="fill:#ececec;fill-rule:evenodd;stroke:#ececec;stroke-width:0.96004224px"
         sodipodi:nodetypes="ccccccccccc"
         inkscape:connector-curvature="0"
         d="m 85.882855,167.48836 c 18.832755,-13.2068 40.480795,-11.63356 62.557625,-7.80776 l 7.43241,-5.64273 -5.08935,13.56172 c 56.44454,-38.6073 83.40022,22.81876 104.9717,6.36053 -11.06047,-21.22648 -29.3921,-37.96189 -60.14545,-47.0277 1.90148,3.72782 4.41434,8.04938 3.46566,9.00928 -18.78141,-17.88087 -60.52499,-5.87503 -72.58669,4.45231 l 8.59476,11.58495 c -26.36061,-0.1869 -41.017432,5.91954 -49.197027,15.50902 z" />
      <path
         id="path3144"
         style="fill:#decd87;fill-rule:evenodd;stroke:#ececec;stroke-width:0.96004224px"
         sodipodi:nodetypes="cccc"
         inkscape:connector-curvature="0"
         d="m 209.68936,225.72937 c 3.65096,-1.76558 10.20249,-7.51324 13.9107,-11.72494 -4.07493,11.65502 -6.73988,14.38565 -9.46837,17.51926 -2.48307,-0.86676 -4.27674,-2.68913 -4.44233,-5.79432 z" />
      <path
         id="path3146"
         style="fill:#decd87;fill-rule:evenodd;stroke:#f2f2f2;stroke-width:0.96004224px;stroke-linecap:round;stroke-linejoin:round"
         sodipodi:nodetypes="cccc"
         inkscape:connector-curvature="0"
         d="m 224.87158,224.45968 c 0.33021,1.08006 -0.98144,1.85479 0.91364,5.23694 4.89034,-4.70061 5.8732,-10.22869 6.62745,-15.18186 -3.0223,5.52714 -3.96626,7.01995 -7.54108,9.9446 z" />
      <path
         id="path3148"
         style="fill:#decd87;fill-rule:evenodd;stroke:#f2f2f2;stroke-width:0.96004224px"
         sodipodi:nodetypes="cccc"
         inkscape:connector-curvature="0"
         d="m 243.20287,185.27499 c -3.45126,6.61076 -6.2867,9.56397 -9.2894,13.50811 1.50097,-3.93083 2.73995,-9.38193 3.24269,-14.66104 1.98524,1.28653 4.01383,1.276 6.04628,1.15303 z" />
      <path
         id="path3150"
         style="fill:#decd87;fill-rule:evenodd;stroke:#f2f2f2;stroke-width:0.96004224px"
         sodipodi:nodetypes="cccc"
         inkscape:connector-curvature="0"
         d="m 259.55501,181.54188 c -3.2491,4.73342 -6.67437,8.989 -10.67037,11.69794 1.72638,-2.96631 3.26744,-5.93498 3.62302,-8.91878 3.38871,-0.91301 4.90673,-1.84986 7.04691,-2.77884 z" />
      <path
         id="path3152"
         style="fill:#ececec;fill-rule:evenodd;stroke:#f2f2f2;stroke-width:0.96004224px"
         sodipodi:nodetypes="ccc"
         inkscape:connector-curvature="0"
         d="m 217.95824,238.38697 c -28.07513,22.39012 -23.34319,-43.87226 -56.92322,-48.06231 33.4746,-8.48458 30.18094,50.12661 56.92322,48.06231 z" />
      <path
         sodipodi:cx="568.32153"
         sodipodi:cy="140.9894"
         transform="matrix(0.79274865,0.39277081,-0.34237607,0.99299737,-225.96727,-248.00835)"
         d="m 582.75616,140.9894 c 0,4.2641 -6.4626,7.72084 -14.43463,7.72084 -7.97202,0 -14.43463,-3.45674 -14.43463,-7.72084 0,-4.26411 6.46261,-7.72085 14.43463,-7.72085 7.97203,0 14.43463,3.45674 14.43463,7.72085 z"
         sodipodi:type="arc"
         style="fill:#f2f2f2;fill-rule:evenodd;stroke:#f2f2f2;stroke-width:1.01300001;stroke-linecap:round;stroke-linejoin:round"
         sodipodi:ry="7.7208481"
         sodipodi:rx="14.434629"
         id="path3162" />
      <path
         inkscape:connector-curvature="0"
         style="fill:#f2f2f2;fill-rule:evenodd;stroke:#f2f2f2;stroke-width:0.928716px"
         sodipodi:nodetypes="ccccccccccccc"
         d="m 39.155676,34.123364 c 15.229295,5.843162 26.496996,11.135163 31.717883,15.587015 l -8.575871,2.573658 C 79.409042,58.81312 87.042086,62.862803 101.58336,72.40094 95.954157,71.167877 89.969872,70.145855 82.135033,70.222199 93.091984,73.216469 97.66018,77.698446 103.37754,81.913074 79.915264,77.082736 77.40539,80.175775 66.294122,80.016294 86.56483,81.607416 100.95655,82.140578 123.47798,93.555826 L 107.67024,77.697624 c 6.66679,-0.08852 13.67019,2.131999 20.70058,4.534212 C 117.70816,73.45489 98.131032,59.429447 77.435048,52.640308 l 7.91729,-1.796683 C 63.914761,39.126758 52.660412,35.733436 39.162386,34.131782 z"
         id="path3171" />
      <path
         sodipodi:cx="195.70671"
         sodipodi:cy="199.0636"
         transform="matrix(1.0628922,0.38731038,-0.40100229,1.4828571,51.200198,-253.64651)"
         d="m 202.75618,199.0636 c 0,2.22475 -3.15615,4.02827 -7.04947,4.02827 -3.89331,0 -7.04947,-1.80352 -7.04947,-4.02827 0,-2.22475 3.15616,-4.02827 7.04947,-4.02827 3.89332,0 7.04947,1.80352 7.04947,4.02827 z"
         sodipodi:type="arc"
         style="fill:#000000;fill-rule:evenodd;stroke:#000000;stroke-width:1.01300001;stroke-linecap:round;stroke-linejoin:round"
         sodipodi:ry="4.0282683"
         sodipodi:rx="7.0494699"
         id="path3164" />
      <path
         sodipodi:cx="195.70671"
         sodipodi:cy="199.0636"
         transform="matrix(0.38866678,-0.05565697,0.12027407,0.51938221,76.217366,20.13439)"
         d="m 202.75618,199.0636 c 0,2.22475 -3.15615,4.02827 -7.04947,4.02827 -3.89331,0 -7.04947,-1.80352 -7.04947,-4.02827 0,-2.22475 3.15616,-4.02827 7.04947,-4.02827 3.89332,0 7.04947,1.80352 7.04947,4.02827 z"
         sodipodi:type="arc"
         style="fill:#e6e6e6;fill-rule:evenodd;stroke:#e6e6e6;stroke-width:1.01300001;stroke-linecap:round;stroke-linejoin:round"
         sodipodi:ry="4.0282683"
         sodipodi:rx="7.0494699"
         id="path3164-1" />
      <path
         sodipodi:nodetypes="ccccccccccccccccccccccccccccccccccccccccccc"
         inkscape:connector-curvature="0"
         style="fill:#ea5411;fill-rule:evenodd;stroke:#ea5411;stroke-width:0.96580249px"
         d="m 26.718098,23.262768 c -1.079408,-0.0172 -2.158041,-0.01623 -3.236574,-0.0079 14.842144,20.988468 24.174293,39.615179 29.773364,56.664485 L 41.447687,74.06002 25.579535,83.171363 49.471478,97.096674 c 21.419287,-6.611789 39.713092,-2.352827 57.642092,3.239686 -49.667143,-5.622533 -59.298486,8.97393 -73.432819,21.29509 12.78575,-2.24067 24.278825,-1.10869 34.496728,3.31135 -16.536154,20.44472 -12.087601,26.41433 -16.527298,38.51335 11.204241,-12.7957 23.706609,-25.02147 48.569899,-31.9949 -12.106288,9.64681 -21.118821,19.33932 -26.192513,29.07581 22.172482,-14.45141 31.749393,-12.10717 43.838083,-13.09373 l -9.21551,-5.12511 c 15.19858,-10.22896 32.51062,-18.27626 55.23624,-20.79351 0.94457,-2.85664 -0.36211,-5.74875 -4.1071,-8.66526 -4.26937,-3.05909 -10.76665,-4.81376 -16.48898,-7.02066 24.94523,-10.092047 40.80021,13.58015 49.91658,15.6933 12.20196,0.58283 42.71074,27.99096 64.83253,43.12431 l 4.77508,-2.44283 -35.9172,-39.88367 -4.98796,-0.0637 5.6326,-10.34361 C 207.01033,75.504234 178.41295,48.472215 125.53498,49.663383 c 11.6904,9.198569 22.25187,18.627142 29.25062,28.715388 l -33.61089,-4.403021 7.47755,-4.209616 C 94.05715,36.707347 60.169569,23.797461 26.705525,23.264477 z m 10.881649,9.352648 c 12.603887,4.129489 13.883549,0.991153 43.909355,16.251152 L 71.349816,51.808109 C 92.884675,58.54899 106.46352,69.79185 121.32296,80.321226 l -19.83375,-3.791817 17.11528,14.907054 C 100.54188,85.451157 82.475339,79.222238 64.623528,81.132981 L 74.136093,74.143887 61.108299,66.867026 73.469966,65.02186 C 68.869248,60.905987 62.98515,56.760269 55.111432,52.602931 l 4.7602,-3.48264 C 57.438135,43.679565 45.764027,38.12514 37.601612,32.611274 z"
         id="path3138" />
      <path
         inkscape:connector-curvature="0"
         style="fill:#f2f2f2;fill-rule:evenodd;stroke:#f2f2f2;stroke-width:0.96004224px"
         d="m 272.46098,162.38079 -0.57905,5.06406 -11.17784,3.40733 11.75712,-8.47128 z"
         id="path3166" />
      <path
         inkscape:connector-curvature="0"
         style="fill:#e95412;fill-rule:evenodd;stroke:#e95412;stroke-width:0.96004224px"
         sodipodi:nodetypes="cccc"
         d="m 145.67233,42.294444 c 3.14073,0.602631 7.9695,0.687481 12.48835,2.73116 -6.88737,-13.076878 -22.02114,-27.750324 -30.67777,-33.636911 6.77449,7.960938 13.33951,17.137443 18.1903,30.905122 z"
         id="path3173" />
      <path
         id="path3035"
         sodipodi:rx="1.8989441"
         sodipodi:ry="1.661576"
         style="opacity:0.978;fill:#333333;stroke:#333333;stroke-width:0.2;stroke-linecap:round;stroke-linejoin:round"
         sodipodi:type="arc"
         d="m 264.9027,174.62387 c 0,0.91766 -0.85019,1.66158 -1.89895,1.66158 -1.04875,0 -1.89894,-0.74392 -1.89894,-1.66158 0,-0.91766 0.85019,-1.66158 1.89894,-1.66158 1.04876,0 1.89895,0.74392 1.89895,1.66158 z"
         transform="translate(-14.86,-4.8952)"
         sodipodi:cy="174.62387"
         sodipodi:cx="263.00375" />
      <path
         id="path3035-7"
         sodipodi:rx="1.8989441"
         sodipodi:ry="1.661576"
         style="opacity:0.978;fill:#333333;stroke:#333333;stroke-width:0.2;stroke-linecap:round;stroke-linejoin:round"
         sodipodi:type="arc"
         d="m 264.9027,174.62387 c 0,0.91766 -0.85019,1.66158 -1.89895,1.66158 -1.04875,0 -1.89894,-0.74392 -1.89894,-1.66158 0,-0.91766 0.85019,-1.66158 1.89894,-1.66158 1.04876,0 1.89895,0.74392 1.89895,1.66158 z"
         transform="translate(-23.076,-4.4572)"
         sodipodi:cy="174.62387"
         sodipodi:cx="263.00375" />
      <path
         id="path3035-4"
         sodipodi:rx="1.8989441"
         sodipodi:ry="1.661576"
         style="opacity:0.978;fill:#333333;stroke:#333333;stroke-width:0.2;stroke-linecap:round;stroke-linejoin:round"
         sodipodi:type="arc"
         d="m 264.9027,174.62387 c 0,0.91766 -0.85019,1.66158 -1.89895,1.66158 -1.04875,0 -1.89894,-0.74392 -1.89894,-1.66158 0,-0.91766 0.85019,-1.66158 1.89894,-1.66158 1.04876,0 1.89895,0.74392 1.89895,1.66158 z"
         transform="translate(-20.055,-11.842)"
         sodipodi:cy="174.62387"
         sodipodi:cx="263.00375" />
      <path
         id="path3035-0"
         sodipodi:rx="1.8989441"
         sodipodi:ry="1.661576"
         style="opacity:0.978;fill:#333333;stroke:#333333;stroke-width:0.2;stroke-linecap:round;stroke-linejoin:round"
         sodipodi:type="arc"
         d="m 264.9027,174.62387 c 0,0.91766 -0.85019,1.66158 -1.89895,1.66158 -1.04875,0 -1.89894,-0.74392 -1.89894,-1.66158 0,-0.91766 0.85019,-1.66158 1.89894,-1.66158 1.04876,0 1.89895,0.74392 1.89895,1.66158 z"
         transform="translate(-30.461,-9.8282)"
         sodipodi:cy="174.62387"
         sodipodi:cx="263.00375" />
      <path
         id="path3035-9"
         sodipodi:rx="1.8989441"
         sodipodi:ry="1.661576"
         style="opacity:0.978;fill:#333333;stroke:#333333;stroke-width:0.2;stroke-linecap:round;stroke-linejoin:round"
         sodipodi:type="arc"
         d="m 264.9027,174.62387 c 0,0.91766 -0.85019,1.66158 -1.89895,1.66158 -1.04875,0 -1.89894,-0.74392 -1.89894,-1.66158 0,-0.91766 0.85019,-1.66158 1.89894,-1.66158 1.04876,0 1.89895,0.74392 1.89895,1.66158 z"
         transform="translate(-27.104,-18.724)"
         sodipodi:cy="174.62387"
         sodipodi:cx="263.00375" />
      <path
         id="path3035-48"
         sodipodi:rx="1.8989441"
         sodipodi:ry="1.661576"
         style="opacity:0.978;fill:#333333;stroke:#333333;stroke-width:0.2;stroke-linecap:round;stroke-linejoin:round"
         sodipodi:type="arc"
         d="m 264.9027,174.62387 c 0,0.91766 -0.85019,1.66158 -1.89895,1.66158 -1.04875,0 -1.89894,-0.74392 -1.89894,-1.66158 0,-0.91766 0.85019,-1.66158 1.89894,-1.66158 1.04876,0 1.89895,0.74392 1.89895,1.66158 z"
         transform="translate(-37.846,-14.696)"
         sodipodi:cy="174.62387"
         sodipodi:cx="263.00375" />
      <path
         id="path3035-8"
         sodipodi:rx="1.8989441"
         sodipodi:ry="1.661576"
         style="opacity:0.978;fill:#333333;stroke:#333333;stroke-width:0.2;stroke-linecap:round;stroke-linejoin:round"
         sodipodi:type="arc"
         d="m 264.9027,174.62387 c 0,0.91766 -0.85019,1.66158 -1.89895,1.66158 -1.04875,0 -1.89894,-0.74392 -1.89894,-1.66158 0,-0.91766 0.85019,-1.66158 1.89894,-1.66158 1.04876,0 1.89895,0.74392 1.89895,1.66158 z"
         transform="translate(-35.496,-24.599)"
         sodipodi:cy="174.62387"
         sodipodi:cx="263.00375" />
      <path
         id="path3035-2"
         sodipodi:rx="1.8989441"
         sodipodi:ry="1.661576"
         style="opacity:0.978;fill:#333333;stroke:#333333;stroke-width:0.2;stroke-linecap:round;stroke-linejoin:round"
         sodipodi:type="arc"
         d="m 264.9027,174.62387 c 0,0.91766 -0.85019,1.66158 -1.89895,1.66158 -1.04875,0 -1.89894,-0.74392 -1.89894,-1.66158 0,-0.91766 0.85019,-1.66158 1.89894,-1.66158 1.04876,0 1.89895,0.74392 1.89895,1.66158 z"
         transform="translate(-45.735,-18.892)"
         sodipodi:cy="174.62387"
         sodipodi:cx="263.00375" />
      <path
         id="path3035-45"
         sodipodi:rx="1.8989441"
         sodipodi:ry="1.661576"
         style="opacity:0.978;fill:#333333;stroke:#333333;stroke-width:0.2;stroke-linecap:round;stroke-linejoin:round"
         sodipodi:type="arc"
         d="m 264.9027,174.62387 c 0,0.91766 -0.85019,1.66158 -1.89895,1.66158 -1.04875,0 -1.89894,-0.74392 -1.89894,-1.66158 0,-0.91766 0.85019,-1.66158 1.89894,-1.66158 1.04876,0 1.89895,0.74392 1.89895,1.66158 z"
         transform="translate(-44.224,-28.291)"
         sodipodi:cy="174.62387"
         sodipodi:cx="263.00375" />
    </g>
    <path
       inkscape:export-ydpi="150"
       inkscape:export-xdpi="150"
       inkscape:export-filename="/root/Desktop/Fox.png"
       sodipodi:nodetypes="ccccscc"
       inkscape:connector-curvature="0"
       id="path4008"
       d="m 147.12765,98.61089 c 12.05767,-6.561472 35.73912,5.89274 39.68765,14.06599 1.95064,4.17914 5.22473,6.18527 8.22901,8.98746 1.25113,1.16697 12.42434,0.96356 14.47819,-0.44342 -1.72328,-0.89603 -10.11276,-0.47401 -10.55665,-1.84838 -1.19921,-3.71299 -2.61257,-7.82547 -4.18916,-10.3604 -5.86685,-8.0827 -35.06436,-18.150356 -47.64904,-10.40125 z"
       style="fill:#2b1100;fill-opacity:1;stroke:#2b1100;stroke-width:1px;stroke-linecap:round;stroke-linejoin:round;stroke-opacity:1" />
    <path
       inkscape:export-ydpi="150"
       inkscape:export-xdpi="150"
       inkscape:export-filename="/root/Desktop/Fox.png"
       sodipodi:nodetypes="cccc"
       inkscape:connector-curvature="0"
       id="path4117"
       d="m 194.17647,126.44068 -14.5318,-1.45336 -14.26182,-2.63549 c 12.32721,-1.82155 21.56077,0.44654 28.79362,4.08885 z"
       style="fill:#2b1100;fill-opacity:1;stroke:#2b1100;stroke-width:1px;stroke-linecap:butt;stroke-linejoin:miter;stroke-opacity:1" />
  </g>
</svg>
